<svg width="35" height="35" viewBox="0 0 24 24" fill="none" xmlns="http://www.w3.org/2000/svg">
<path opacity="0.4" fill-rule="evenodd" clip-rule="evenodd" d="M21.5665 6.80311C21.8789 7.1155 21.879 7.62203 21.5666 7.93448L13.8322 15.6703C13.6822 15.8204 13.4787 15.9047 13.2665 15.9047C13.0543 15.9047 12.8508 15.8204 12.7008 15.6704L8.89422 11.8638L3.561 17.197C3.24858 17.5094 2.74205 17.5094 2.42963 17.197C2.11721 16.8846 2.11721 16.3781 2.42963 16.0657L8.32853 10.1667C8.47856 10.0167 8.68205 9.93244 8.89422 9.93244C9.10639 9.93244 9.30988 10.0167 9.45991 10.1667L13.2664 13.9733L20.4351 6.80322C20.7475 6.49077 21.254 6.49072 21.5665 6.80311Z" fill="#ffffff" class="my-path"/>
<path fill-rule="evenodd" clip-rule="evenodd" d="M20.1992 8.16885L14.5148 8.16885C14.073 8.16885 13.7148 7.81068 13.7148 7.36885C13.7148 6.92702 14.073 6.56885 14.5148 6.56885L20.9992 6.56885C21.2114 6.56885 21.4148 6.65313 21.5649 6.80316C21.7149 6.95319 21.7992 7.15667 21.7992 7.36885V13.947C21.7992 14.3888 21.441 14.747 20.9992 14.747C20.5574 14.747 20.1992 14.3888 20.1992 13.947V8.16885Z" fill="#ffffff" class="my-path"/>
</svg>