<svg width="66" height="32" viewBox="0 0 66 32" fill="none" xmlns="http://www.w3.org/2000/svg">
<path fill-rule="evenodd" clip-rule="evenodd" d="M36.6206 27.6706C36.234 27.6706 34.5369 27.6518 34.1503 27.6329C32.8774 27.5482 31.416 27.3318 30.2563 26.9929C30.0394 26.9271 29.1437 26.6071 28.9174 26.5035C24.8914 24.6494 22.0817 20.6023 22.0817 15.9153C22.0817 9.47764 27.3523 4.23529 33.8391 4.23529C40.2694 4.23529 45.5023 9.38353 45.5966 15.7459H49.8394C49.7546 7.06823 42.6171 0.0188235 33.8486 0.0188235C25.0234 0.0188235 17.8389 7.15294 17.8389 15.9059C17.8389 21.9482 21.2614 27.2 26.268 29.8918C27.1731 30.3718 28.4743 30.8518 28.908 30.9929C30.3411 31.4165 32.0854 31.6988 33.6506 31.8118C34.1786 31.8494 36.0266 31.8776 36.5734 31.8776H65.8303V27.6706H36.6206ZM65.8208 25.0918V21.0353H36.6206C36.3094 21.0353 34.6971 21.0259 34.3954 20.9976C33.8863 20.96 33.1603 20.8753 32.6889 20.7718C32.1609 20.6306 31.6611 20.4423 31.4349 20.32C29.8603 19.4729 28.7854 17.8165 28.7854 15.9059C28.7854 13.1294 31.0483 10.88 33.8486 10.88C36.5829 10.88 38.8174 13.0447 38.9023 15.7459H42.9849C42.9 10.8047 38.8457 6.82353 33.8486 6.82353C28.7949 6.82353 24.7029 10.8894 24.7029 15.9059C24.7029 19.4447 26.7394 22.4941 29.7189 23.9906C30.1714 24.2541 31.0389 24.5365 31.284 24.6023C32.1231 24.8188 33.2546 24.9694 34.1597 25.0353C34.4991 25.0635 36.1586 25.0729 36.5074 25.0729V25.0823H65.8208V25.0918ZM0 10.4471H4.69543V31.8588H8.80628V6.37176H0V10.4471ZM4.69543 4.24471H10.9466V31.8588H15.2177V0H4.69543V4.24471ZM58.2686 5.8447C59.8526 5.8447 61.0877 4.58353 61.0877 3.04941C61.0877 1.51529 59.862 0.301176 58.2686 0.301176C56.7317 0.301176 55.4494 1.52471 55.4494 3.04941C55.4589 4.57412 56.7317 5.8447 58.2686 5.8447ZM58.2686 0.743529C59.5414 0.743529 60.6257 1.76 60.6257 3.04941C60.6257 4.40471 59.532 5.39294 58.2686 5.39294C56.9957 5.39294 55.902 4.39529 55.902 3.04941C55.902 1.76 56.9957 0.743529 58.2686 0.743529ZM57.7971 3.29412H58.2026C58.7871 3.29412 58.8343 3.55765 58.8343 3.80235C58.8343 4.27294 58.8343 4.35765 58.9474 4.42353H59.4566C59.3434 4.31059 59.3906 4.22588 59.3434 3.80235C59.3434 3.49176 59.2963 3.20941 58.938 3.09647C59.3811 2.93647 59.4283 2.65412 59.4283 2.47529C59.4283 1.76941 58.7777 1.67529 58.5137 1.67529H57.288V4.42353H57.7971V3.29412ZM57.7971 2.02353H58.3157C58.674 2.02353 58.9191 2.13647 58.9191 2.46588C58.9191 2.64471 58.8343 2.88941 58.4006 2.88941H57.7971V2.02353Z" fill="#FF1313"/>
</svg>
