<?xml version="1.0" standalone="no"?>
<!DOCTYPE svg PUBLIC "-//W3C//DTD SVG 20010904//EN"
 "http://www.w3.org/TR/2001/REC-SVG-20010904/DTD/svg10.dtd">
<svg version="1.0" xmlns="http://www.w3.org/2000/svg"
 width="528.000000pt" height="528.000000pt" viewBox="0 0 528.000000 528.000000"
 preserveAspectRatio="xMidYMid meet">
<metadata>
Created by potrace 1.14, written by Peter Selinger 2001-2017
</metadata>
<g transform="translate(0.000000,528.000000) scale(0.100000,-0.100000)"
fill="#FFFFFF" stroke="none">
<path d="M2338 5195 c-2 -2 -30 -6 -63 -9 -33 -3 -71 -8 -85 -11 -14 -3 -41
-8 -60 -11 -19 -3 -69 -14 -110 -25 -41 -11 -84 -22 -95 -24 -21 -5 -89 -31
-117 -46 -10 -5 -25 -9 -33 -9 -8 0 -15 -5 -15 -12 0 -6 -3 -8 -6 -5 -13 12
-201 -99 -309 -182 -65 -50 -192 -175 -234 -231 -14 -19 -29 -37 -32 -40 -37
-32 -199 -315 -239 -420 -11 -30 -27 -68 -35 -85 -13 -29 -73 -226 -94 -310
-11 -40 -12 -41 -73 -53 -208 -42 -393 -139 -507 -266 -14 -16 -31 -34 -36
-40 -20 -22 -75 -113 -75 -124 0 -7 -5 -12 -11 -12 -5 0 -8 -4 -4 -9 3 -5 1
-12 -4 -15 -12 -8 -61 -159 -77 -236 -25 -122 -26 -377 -1 -470 71 -267 277
-474 582 -586 11 -4 25 -8 30 -9 6 -2 30 -8 55 -15 61 -16 76 -19 140 -27 30
-3 61 -7 69 -8 8 -1 33 -62 62 -151 27 -82 58 -168 69 -191 11 -24 20 -46 20
-49 0 -12 115 -240 158 -313 136 -231 331 -462 497 -589 33 -26 61 -50 63 -54
2 -4 8 -8 13 -8 9 0 65 -36 79 -50 8 -8 51 -32 120 -66 110 -54 158 -73 275
-107 133 -39 353 -59 451 -41 81 14 170 75 221 149 27 40 59 134 57 165 -11
126 -54 186 -163 223 -55 18 -180 15 -251 -7 -216 -67 -438 -78 -625 -30 -72
19 -200 70 -237 96 -14 10 -29 18 -33 18 -14 0 -153 112 -207 167 -60 61 -80
84 -113 129 -11 15 -25 32 -30 38 -24 24 -119 192 -165 290 -47 99 -123 309
-134 369 -2 15 -7 35 -10 45 -3 9 -7 28 -10 42 -3 14 -14 61 -25 105 -11 44
-22 103 -26 130 -3 28 -10 75 -15 105 -10 56 -14 91 -26 195 -13 109 -8 377
10 590 11 128 34 340 41 375 2 10 7 40 11 67 3 26 8 57 10 68 2 11 9 47 14 80
6 33 18 85 26 115 9 30 17 62 19 70 2 8 20 60 40 115 20 55 37 106 37 113 1 6
5 12 10 12 4 0 8 7 8 15 0 15 76 173 117 245 43 74 68 115 75 125 5 6 32 42
60 80 75 101 230 251 336 323 186 128 396 205 621 228 124 13 309 8 396 -10
194 -41 345 -104 510 -213 139 -92 247 -191 390 -358 41 -47 168 -243 212
-325 67 -126 155 -356 170 -445 3 -16 9 -38 14 -47 5 -10 8 -18 5 -18 -3 0 0
-15 5 -32 5 -18 12 -53 15 -78 3 -25 8 -53 10 -63 3 -10 7 -31 9 -47 2 -17 9
-66 15 -109 10 -71 15 -114 25 -206 15 -136 20 -230 20 -425 0 -300 -14 -419
-81 -685 -14 -55 -27 -107 -29 -115 -2 -8 -4 -15 -5 -15 -1 0 -3 -10 -5 -21
-4 -21 -1 -21 83 -18 80 2 116 6 182 19 14 3 34 7 45 9 80 15 331 124 355 155
3 3 22 19 43 35 124 92 259 289 281 409 2 15 7 31 10 36 15 24 22 196 12 306
-11 116 -12 127 -35 215 -28 106 -62 186 -117 271 -43 65 -137 169 -154 169
-4 0 -10 4 -12 8 -4 11 -82 62 -143 94 -62 32 -183 73 -264 89 -59 11 -73 20
-77 46 -3 18 -64 211 -76 241 -6 15 -12 29 -12 32 -5 33 -162 354 -186 382 -6
7 -26 37 -45 67 -19 30 -38 57 -42 60 -5 3 -16 18 -25 32 -58 92 -263 280
-396 366 -65 41 -258 136 -287 141 -11 2 -24 7 -30 12 -9 6 -25 11 -80 26 -5
1 -38 10 -72 19 -68 18 -89 22 -143 30 -20 3 -47 8 -60 11 -26 6 -436 15 -442
9z"/>
<path d="M2409 4666 c-2 -2 -33 -7 -68 -10 -56 -6 -131 -23 -236 -54 -78 -23
-289 -132 -315 -162 -3 -3 -23 -19 -45 -35 -50 -37 -192 -179 -225 -225 -76
-107 -111 -166 -158 -262 -29 -58 -52 -111 -52 -117 0 -6 -4 -19 -10 -29 -8
-14 -37 -105 -46 -147 -1 -5 -9 -39 -18 -75 -8 -36 -17 -83 -20 -105 -3 -22
-9 -62 -13 -90 -9 -66 -10 -414 -1 -492 6 -51 18 -126 42 -268 22 -122 104
-367 172 -513 19 -41 34 -75 34 -77 0 -13 172 -290 189 -305 4 -3 19 -23 36
-45 68 -93 245 -255 350 -322 69 -44 207 -107 257 -117 13 -3 34 -8 48 -11 79
-18 121 -22 208 -20 107 4 141 8 222 32 30 9 60 17 65 18 36 8 250 128 275
155 3 3 25 21 50 41 345 277 628 857 686 1404 12 115 14 146 13 270 0 169 -7
259 -26 350 -4 17 -7 37 -8 45 -2 29 -17 95 -38 165 -12 39 -21 73 -22 77 0 3
-3 10 -7 14 -5 4 -8 13 -8 21 0 17 -92 217 -102 221 -5 2 -8 9 -8 15 0 6 -26
49 -57 96 -54 80 -271 311 -292 311 -5 0 -16 6 -23 13 -20 21 -117 80 -179
109 -73 35 -159 69 -159 63 0 -3 -12 1 -27 8 -28 14 -43 17 -183 41 -67 12
-292 20 -301 12z"/>
</g>
</svg>
