<svg width="30" height="30" viewBox="0 0 24 24" fill="none" xmlns="http://www.w3.org/2000/svg">
<path opacity="0.4" d="M3 9.56756C3 8.73913 3.67157 8.06756 4.5 8.06756H18M3 9.56756C3 8.55072 3 8.04229 3.20663 7.62374C3.3048 7.42488 3.43537 7.24373 3.59298 7.08771C3.92471 6.75932 4.40704 6.59855 5.37171 6.27699L12.7351 3.82253C15.1376 3.0217 16.3388 2.62128 17.1694 3.21993C18 3.81858 18 5.08481 18 7.61726V8.06756M3 9.56756V17.0676C3 18.9532 3 19.896 3.58579 20.4818C4.17157 21.0676 5.11438 21.0676 7 21.0676H17C18.8856 21.0676 19.8284 21.0676 20.4142 20.4818C21 19.896 21 18.9532 21 17.0676V11.0676C21 10.1357 21 9.66974 20.8478 9.30219C20.6448 8.81214 20.2554 8.42279 19.7654 8.2198C19.3978 8.06756 18.9319 8.06756 18 8.06756" stroke="#ffffff" stroke-width="null" stroke-linejoin="round" class="my-path"/>
<path d="M14 14.5674C14 14.1027 14 13.8704 14.0384 13.6772C14.1962 12.8838 14.8164 12.2636 15.6098 12.1058C15.803 12.0674 16.0353 12.0674 16.5 12.0674H21V17.0674H16.5C16.0353 17.0674 15.803 17.0674 15.6098 17.029C14.8164 16.8711 14.1962 16.2509 14.0384 15.4576C14 15.2644 14 15.032 14 14.5674Z" stroke="#ffffff" stroke-width="null" class="my-path"/>
<path d="M17.5 14.5671L18 14.567" stroke="#ffffff" stroke-width="null" stroke-linecap="round" class="my-path"/>
</svg>